<?xml version="1.0" encoding="UTF-8" standalone="no"?>
<!-- Created with Inkscape (http://www.inkscape.org/) -->
<svg xmlns:dc="http://purl.org/dc/elements/1.1/" xmlns:cc="http://creativecommons.org/ns#" xmlns:rdf="http://www.w3.org/1999/02/22-rdf-syntax-ns#" xmlns:svg="http://www.w3.org/2000/svg" xmlns="http://www.w3.org/2000/svg" xmlns:sodipodi="http://sodipodi.sourceforge.net/DTD/sodipodi-0.dtd" xmlns:inkscape="http://www.inkscape.org/namespaces/inkscape" width="1750.2253" height="822.45959" id="svg2" version="1.1" inkscape:version="0.48+devel r9816" sodipodi:docname="New document 1">
  <defs id="defs4">
    <inkscape:perspective id="perspective10" inkscape:persp3d-origin="0.5 : 0.33333333 : 1" inkscape:vp_z="1 : 0.5 : 1" inkscape:vp_y="0 : 1000 : 0" inkscape:vp_x="0 : 0.5 : 1" sodipodi:type="inkscape:persp3d"/>
  </defs>
  <sodipodi:namedview id="base" pagecolor="#ffffff" bordercolor="#666666" borderopacity="1.0" inkscape:pageopacity="0.0" inkscape:pageshadow="2" inkscape:zoom="0.175" inkscape:cx="290.52115" inkscape:cy="337.92858" inkscape:document-units="px" inkscape:current-layer="layer1" showgrid="false" fit-margin-top="50" fit-margin-left="50" fit-margin-right="50" fit-margin-bottom="5" inkscape:window-width="886" inkscape:window-height="613" inkscape:window-x="73" inkscape:window-y="4" inkscape:window-maximized="0"/>
  <metadata id="metadata7">
    <rdf:RDF>
      <cc:Work rdf:about="">
        <dc:format>image/svg+xml</dc:format>
        <dc:type rdf:resource="http://purl.org/dc/dcmitype/StillImage"/>
        <dc:title/>
      </cc:Work>
    </rdf:RDF>
  </metadata>
  <g inkscape:label="Layer 1" inkscape:groupmode="layer" id="layer1" transform="translate(919.55807,45.09707)">
    <path style="fill:#000000;fill-opacity:1;fill-rule:nonzero;stroke:none" d="m 666.3504,300.12014 c -50.29515,0 -23.21484,217.65551 -65.48668,217.65551 -120.29853,0 -198.76927,0 -319.0678,0 -48.75766,0 -24.22372,-109.15531 -55.87935,-109.15531 -69.73801,0 -108.17726,220.68523 -139.534984,343.84331 -8.71801,18.9194 -2.08516,19.89853 10.26088,19.89853 l 61.948134,0 c 184.24155,-37.96383 368.48312,-30.43254 552.7247,0 l 53.33047,0 c 16.95158,0 16.01221,-0.99341 16.01221,-24.56608 0,-82.98354 -10.47386,-447.67596 -114.30758,-447.67596 z" id="rect3071" inkscape:connector-curvature="0" sodipodi:nodetypes="cccccsccscc"/>
    <path style="fill:#000000" d="m -227.71875,4.90625 c -17.68783,0.068754 -35.42157,1.4461606 -52.09375,7.65625 -20.24438,4.22452 -34.73678,20.886422 -54.21875,26.8125 -15.48393,6.57343 -25.84216,21.31187 -33.53125,35.6875 -7.37682,8.65319 -3.6992,20.265587 -8.5,30.0625 -8.63748,25.22863 -11.50163,52.60237 -8.46875,79.09375 1.72058,17.1687 9.50672,32.69026 16.90625,47.96875 6.78686,6.37678 10.55538,16.10397 7.59375,25.84375 0.23517,14.62549 -17.6814,10.80055 -26.6875,16.65625 -19.72028,9.69342 -37.14904,23.43677 -56.28125,34.21875 -38.81675,18.39368 -79.17367,33.33417 -119.21875,48.8125 -4.99888,4.10371 -8.73091,-2.16378 -13.9375,-2.28125 -11.90931,2.14272 -23.25869,6.70592 -34.75,10.40625 -28.36724,10.47806 -59.05818,18.35532 -81.875,39.34375 -12.03316,10.25386 -24.84918,20.06386 -32.96875,33.96875 -7.35088,9.83941 -9.64015,21.95654 -14.1875,33.0625 -12.05475,24.58584 -20.2619,50.77759 -27.125,77.21875 -3.41626,-5.06106 -6.94737,-10.13767 -8.9375,-15.96875 -3.62109,-12.92699 -14.90766,-28.20296 -30.03125,-25.375 -12.90229,4.24634 -17.20008,18.74824 -23.59375,29.28125 -4.52557,10.05686 -8.7802,20.33264 -14.3125,29.96875 -8.65317,10.02453 -18.11451,19.4667 -25.125,30.8125 -0.83305,4.69277 -0.12663,9.84535 -0.375,14.71875 0.74243,8.50317 -2.40177,18.60033 4.15625,25.375 4.06496,8.65258 10.66532,15.14957 15.53125,22.78125 8.31685,4.81908 0.25592,16.61353 8.625,21.75 6.5974,4.70776 12.35025,-2.162 16.90625,-6.34375 6.90431,14.90468 12.9958,30.81219 25.09375,42.40625 11.34274,4.72329 19.85774,14.45673 31.6875,18.21875 15.60055,2.40328 32.35805,2.23876 46.75,-5.0625 9.93069,-2.17224 17.48481,-13.65045 27.75,-10.90625 9.27611,0.87168 19.83253,-2.38247 26.0625,-9.3125 2.29032,-11.54402 11.71705,-19.405 15.375,-30.28125 3.77993,-7.35145 -0.0459,-25.70744 12.0625,-23.59375 18.82605,11.41671 35.48164,26.05624 54.125,37.78125 18.42554,10.3749 38.31831,18.45679 58.875,23.46875 15.4017,4.47029 31.37416,-0.27276 45.15625,-7.375 10.56516,-4.87443 11.19673,14.9242 18.65625,20.15625 6.55586,10.82928 18.49484,15.76652 30,19.4375 14.34604,6.64775 30.25197,5.73595 45.625,6.625 5.42073,1.31054 7.97932,8.7614 13.5,11.03125 2.73492,1.79357 5.86708,3.53193 9.25,3.3125 8.01437,-1.61057 4.59324,-11.30833 4.8125,-17.21875 8.00034,-2.19286 15.97751,-4.82511 24.28125,-5.59375 10.61241,-1.05912 16.89578,12.55798 28.40625,9.9375 12.27445,-1.73 -3.25162,-18.73105 5.5625,-17.71875 6.87164,5.24765 17.56544,21.29613 25.65625,9.28125 14.60213,-1.07813 7.19168,-15.8849 3.25,-24.34375 -3.92747,-10.5435 -15.69246,-16.29319 -25.78125,-19.875 -24.19419,-5.01264 -48.82527,-9.31606 -73.625,-8.875 l -17.21875,-34.46875 c -2.54739,-16.63538 -6.21545,-33.17211 -7.375,-49.96875 14.59975,-4.54744 29.37669,-9.01047 42.6875,-16.78125 19.62368,-11.12106 35.89258,-27.0821 53.53125,-40.96875 12.75876,-11.81564 28.76997,-18.79118 44,-26.71875 81.63962,-57.8018 67.09582,-55.21175 135.03125,-56.46875 31.652276,-0.46032 60.845815,16.30774 92.5,15.15625 9.889279,0.0609 17.968759,-7.13969 27.5625,-7.71875 16.182651,1.54249 32.677599,2.04299 48.5625,-2.09375 19.063735,-5.35535 39.074606,-6.38163 57.78125,-13.0625 5.27141,-2.83362 6.88331,6.35554 11.75,7.4375 8.6721,5.93559 23.18392,-0.0643 27.1875,12.71875 0.48475,11.30215 12.76034,3.58248 12.6875,-4 4.57778,-9.40731 -0.67364,-18.79898 -4.125,-27.5625 4.60788,-6.15037 9.2267,-12.33528 13.6875,-18.59375 7.81687,-13.25031 20.89379,-22.15133 28.71875,-35.34375 4.2012,-11.19313 16.41452,-25.76723 15.40625,-31.46875 -0.93411,-5.28208 -4.0394,1.80557 -5.625,-4.8125 -0.73007,-3.04729 4.88633,-3.57423 4.9375,-8 0.11235,-9.72205 -25.0172,-0.60146 -33.21875,6.5 -8.8407,7.05086 -14.44666,19.30865 -26.5,21.25 -18.99108,3.41576 -38.23583,-1.12756 -57.0625,-3.71875 -23.960534,-4.98943 -47.914135,-10.8527 -72.5,-11.6875 -15.5052552,-1.47803 -29.3597235,6.41376 -44.15625,9.1875 -30.374219,4.04091 -61.125941,0.73662 -91.59375,-0.5 -13.53094,-0.30065 -26.35467,-4.86522 -39.5,-7.5625 1.31464,-0.22232 2.64742,-0.43356 4,-0.59375 18.58652,-0.93156 20.10217,-1.23047 34.875,-10.625 2.12091,-8.26834 10.92559,-8.43905 17.65625,-7.15625 11.05747,-1.37047 5.61125,-15.24031 0.5625,-20.625 -6.43288,-14.11268 8.88353,-15.79897 18.75,-18.09375 13.57863,-0.78293 16.29285,-13.62813 21.40625,-22.78125 9.38594,-3.49626 18.82096,-11.83298 10.0625,-22 -5.21582,-8.05723 -15.23313,-16.92794 -8.25,-27.0625 -3.97588,-9.71521 14.75963,-7.34209 8.9375,-14.21875 -11.89361,-3.71395 2.82003,-12.79875 -1.09375,-18.96875 -0.09239,-11.1859 4.83414,-21.801 7.0625,-32.6875 4.04474,-12.59726 5.17147,-25.78753 4,-38.9375 C -38.05415,124.30541 -42.71547,114.5866 -48.96875,105.75 -57.57927,92.950887 -64.55301,78.95964 -75.5,67.9375 -85.84717,58.05027 -98.248303,50.341749 -109.28125,41.15625 c -7.55898,-7.384361 -18.91708,-10.04128 -27.8125,-13.21875 -13.28803,-2.832495 -25.38642,-9.359908 -37.625,-15.03125 -10.93358,-5.4691784 -23.72238,-4.589357 -35.375,-7.78125 -5.84232,-0.143488 -11.72906,-0.241668 -17.625,-0.21875 z" id="path3417" inkscape:connector-curvature="0" sodipodi:nodetypes="scccccccccccccccccccccccccccccccccccccccccccccccccccccccccccccccccssscccccccccccccccccccccccccs"/>
  </g>
</svg>